<svg version="1.1" id="Layer_1" xmlns="http://www.w3.org/2000/svg" xmlns:xlink="http://www.w3.org/1999/xlink" x="0px" y="0px"
	 width="100%" viewBox="0 0 256 256" enable-background="new 0 0 256 256" xml:space="preserve">
<path fill="#000000" opacity="1.000000" stroke="none" 
	d="
M45.633247,215.668091 
	C42.656052,217.556641 40.842010,220.724380 35.796795,221.266159 
	C66.925812,158.627914 97.557037,96.991333 128.188263,35.354744 
	C128.747742,35.369576 129.307236,35.384407 129.866730,35.399239 
	C160.317657,96.939056 190.768600,158.478867 221.483459,220.552063 
	C217.737488,220.804153 216.435776,218.811691 214.850494,217.554932 
	C187.710617,196.039047 160.536301,174.564774 133.595474,152.801682 
	C129.524063,149.512756 126.971176,149.596863 123.045578,152.816681 
	C97.438965,173.819458 71.649330,194.599106 45.633247,215.668091 
M127.098618,112.759293 
	C127.098618,89.370461 127.098618,65.981621 127.098618,43.321072 
	C99.207047,99.429192 70.885078,156.403122 42.563114,213.377060 
	C44.128506,213.305954 45.002445,212.827332 45.765251,212.211151 
	C71.942078,191.065155 98.093811,169.888031 124.302444,148.781586 
	C126.530876,146.986969 127.032951,144.839569 127.021194,142.206970 
	C126.978775,132.709015 127.040367,123.210625 127.098618,112.759293 
z"/>
<path fill="#000000" opacity="1.000000" stroke="none" 
	d="
M143.224304,215.774048 
	C136.475327,206.954681 129.948303,198.421051 123.399857,189.859421 
	C121.175240,191.489624 121.448952,193.266922 121.426292,194.839417 
	C121.342331,200.664978 121.425682,206.492905 121.347389,212.318619 
	C121.314690,214.751465 121.709175,216.630249 124.682831,216.792664 
	C125.940193,216.861359 126.975723,217.488525 126.927582,218.946136 
	C126.870415,220.676712 125.580948,221.130035 124.161453,221.155899 
	C120.833221,221.216522 117.502716,221.223938 114.174370,221.172714 
	C112.825211,221.151962 111.367577,220.946625 111.101173,219.265823 
	C110.828224,217.543777 112.048462,216.912247 113.488358,216.716553 
	C116.094833,216.362289 116.588089,214.534851 116.594292,212.377243 
	C116.620102,203.387360 116.615257,194.397400 116.644638,185.407532 
	C116.651917,183.179535 116.144005,181.459915 113.474762,181.243774 
	C112.028946,181.126709 110.790039,180.500854 111.070847,178.753082 
	C111.338280,177.088593 112.758102,176.895447 114.127274,176.806808 
	C119.030510,176.489304 123.407822,176.531570 126.687454,181.599976 
	C131.105331,188.427460 136.406326,194.686340 141.378372,201.150726 
	C142.867126,203.086304 144.119019,205.283478 147.056458,206.921021 
	C148.169891,198.801865 147.588608,191.064133 147.512207,183.359406 
	C147.495789,181.705139 146.000107,181.395599 144.595398,181.248489 
	C143.168549,181.099045 141.859375,180.642624 142.082336,178.861664 
	C142.292740,177.181030 143.697617,176.881927 145.073700,176.859100 
	C148.402039,176.803864 151.732544,176.788635 155.060577,176.847778 
	C156.442017,176.872330 157.817825,177.215927 157.862640,178.992722 
	C157.898880,180.429459 156.872696,181.114288 155.619110,181.168304 
	C152.171341,181.316833 152.302429,183.708771 152.306580,186.124771 
	C152.323441,195.947495 152.378098,205.770981 152.264404,215.592422 
	C152.239731,217.723083 153.442184,220.687653 150.346054,221.625961 
	C147.524170,222.481155 146.395035,219.788681 144.925369,218.070862 
	C144.385849,217.440262 143.936630,216.732407 143.224304,215.774048 
z"/>
</svg>